<svg width="30" height="33" viewBox="0 0 30 33" fill="none" xmlns="http://www.w3.org/2000/svg">
<g id="Frame 763">
<path id="Rectangle 109" d="M26 24.3496V29.3496C26 30.4542 25.1046 31.3496 24 31.3496H3C1.89543 31.3496 1 30.4542 1 29.3496V3.34961C1 2.24504 1.89543 1.34961 3 1.34961H20.6093C21.1762 1.34961 21.7166 1.59025 22.0959 2.01168L25.4866 5.77915C25.8171 6.1464 26 6.623 26 7.11708V11.3496" stroke="#0042EC" stroke-width="2"/>
<rect id="Rectangle 110" x="5" y="11.3496" width="24" height="13" rx="2" stroke="#0042EC" stroke-width="2"/>
<path id="Rectangle 106 (Stroke)" fill-rule="evenodd" clip-rule="evenodd" d="M15 14.3496C15 13.7973 15.4477 13.3496 16 13.3496H18C19.6569 13.3496 21 14.6928 21 16.3496V19.3496C21 21.0065 19.6569 22.3496 18 22.3496H16C15.4477 22.3496 15 21.9019 15 21.3496V14.3496ZM17 15.3496V20.3496H18C18.5523 20.3496 19 19.9019 19 19.3496V16.3496C19 15.7973 18.5523 15.3496 18 15.3496H17Z" fill="#0042EC"/>
<path id="Union" fill-rule="evenodd" clip-rule="evenodd" d="M9 13.3496C8.44772 13.3496 8 13.7973 8 14.3496V21.3496C8 21.9019 8.44772 22.3496 9 22.3496C9.55228 22.3496 10 21.9019 10 21.3496V19.3496H12C13.1046 19.3496 14 18.4542 14 17.3496V15.3496C14 14.245 13.1046 13.3496 12 13.3496H9ZM10 17.3496H12V15.3496H10V17.3496Z" fill="#0042EC"/>
<path id="Union_2" d="M26 13.3496H23C22.4477 13.3496 22 13.7973 22 14.3496V21.3496C22 21.9019 22.4477 22.3496 23 22.3496C23.5523 22.3496 24 21.9019 24 21.3496V19.3496H25C25.5523 19.3496 26 18.9019 26 18.3496C26 17.7973 25.5523 17.3496 25 17.3496H24V15.3496H26C26.5523 15.3496 27 14.9019 27 14.3496C27 13.7973 26.5523 13.3496 26 13.3496Z" fill="#0042EC"/>
</g>
</svg>
