<svg width="28" height="28" viewBox="0 0 28 28" fill="none" xmlns="http://www.w3.org/2000/svg">
<g id="icon_1">
<path id="Subtract" d="M7.1441 11.4475L6.19292 11.1389C6.10416 11.4124 6.13746 11.7109 6.28432 11.9582C6.43117 12.2054 6.67737 12.3775 6.96003 12.4304L7.1441 11.4475ZM7.14404 16.5518L6.96 15.5689C6.67733 15.6219 6.43113 15.7939 6.28427 16.0412C6.13741 16.2884 6.10411 16.5869 6.19286 16.8605L7.14404 16.5518ZM8.81526 19.4731L8.06641 20.1358C8.25866 20.353 8.53576 20.4761 8.82582 20.473C9.11589 20.47 9.39033 20.3411 9.57794 20.1198L8.81526 19.4731ZM12.0924 18.9063L12.5924 18.0403L12.0924 18.9063ZM13.2247 22.0696L12.2892 21.7163C12.1866 21.988 12.2072 22.2909 12.3456 22.5462C12.4841 22.8015 12.7266 22.9841 13.0103 23.0463L13.2247 22.0696ZM16.6387 22.1001L16.8354 23.0805C17.1254 23.0223 17.3748 22.8388 17.5165 22.5792C17.6582 22.3195 17.6777 22.0105 17.5697 21.7352L16.6387 22.1001ZM17.7594 18.9067L17.2594 18.0406V18.0406L17.7594 18.9067ZM21.1107 19.565L20.3194 20.1764C20.5001 20.4102 20.7748 20.5522 21.07 20.5642C21.3652 20.5762 21.6506 20.4571 21.8496 20.2388L21.1107 19.565ZM22.8569 16.5754L23.8071 16.8869C23.9001 16.6033 23.8616 16.293 23.702 16.0408C23.5425 15.7886 23.2787 15.6209 22.9827 15.5833L22.8569 16.5754ZM22.8567 11.4237L22.9826 12.4157C23.2786 12.3782 23.5424 12.2104 23.7019 11.9582C23.8614 11.706 23.8999 11.3957 23.807 11.1121L22.8567 11.4237ZM21.1109 8.43465L21.8498 7.76086C21.6508 7.54254 21.3653 7.42343 21.0701 7.43548C20.7749 7.44753 20.5001 7.58951 20.3195 7.82333L21.1109 8.43465ZM17.7594 9.09324L17.2594 9.95927L17.7594 9.09324ZM16.6388 5.89946L17.5698 6.26452C17.6778 5.98915 17.6583 5.6801 17.5166 5.42045C17.375 5.1608 17.1256 4.9772 16.8356 4.91901L16.6388 5.89946ZM13.2244 5.92999L13.01 4.95326C12.7263 5.01555 12.4836 5.19814 12.3452 5.45353C12.2068 5.70892 12.1863 6.01187 12.289 6.28359L13.2244 5.92999ZM12.0924 9.09407L11.5924 8.22804L11.5924 8.22804L12.0924 9.09407ZM8.81488 8.52686L9.57771 7.88027C9.39011 7.65895 9.11564 7.53001 8.82553 7.52692C8.53541 7.52383 8.25825 7.64689 8.06599 7.86417L8.81488 8.52686ZM6.96003 12.4304C7.69995 12.569 8.2598 13.22 8.2598 13.9997H10.2598C10.2598 12.2398 8.99685 10.7771 7.32817 10.4646L6.96003 12.4304ZM8.2598 13.9997C8.2598 14.7793 7.69994 15.4304 6.96 15.5689L7.32809 17.5348C8.99681 17.2223 10.2598 15.7595 10.2598 13.9997H8.2598ZM9.5641 18.8103C8.91069 18.072 8.4059 17.2007 8.09523 16.2432L6.19286 16.8605C6.58999 18.0845 7.23448 19.1958 8.06641 20.1358L9.5641 18.8103ZM12.5924 18.0403C11.0626 17.1571 9.15569 17.5255 8.05257 18.8263L9.57794 20.1198C10.067 19.5431 10.9146 19.381 11.5924 19.7723L12.5924 18.0403ZM14.1603 22.4229C14.7718 20.8034 14.1405 18.9341 12.5924 18.0403L11.5924 19.7723C12.2784 20.1684 12.5603 20.9985 12.2892 21.7163L14.1603 22.4229ZM15.0043 21.2617C14.4659 21.2617 13.9423 21.2033 13.4392 21.0928L13.0103 23.0463C13.6535 23.1875 14.3208 23.2617 15.0043 23.2617V21.2617ZM16.4419 21.1196C15.978 21.2127 15.4974 21.2617 15.0043 21.2617V23.2617C15.6303 23.2617 16.2427 23.1995 16.8354 23.0805L16.4419 21.1196ZM17.5697 21.7352C17.2868 21.0132 17.5674 20.1722 18.2594 19.7727L17.2594 18.0406C15.698 18.9421 15.0692 20.836 15.7076 22.465L17.5697 21.7352ZM18.2594 19.7727C18.959 19.3688 19.8389 19.5546 20.3194 20.1764L21.9021 18.9536C20.8177 17.5502 18.8377 17.1294 17.2594 18.0406L18.2594 19.7727ZM21.9066 16.2639C21.5839 17.2484 21.0557 18.1412 20.3718 18.8912L21.8496 20.2388C22.7203 19.2841 23.3946 18.1454 23.8071 16.8869L21.9066 16.2639ZM19.5902 13.9995C19.5902 15.8318 20.9595 17.3428 22.7311 17.5674L22.9827 15.5833C22.1977 15.4838 21.5902 14.8118 21.5902 13.9995H19.5902ZM22.7309 10.4316C20.9594 10.6564 19.5902 12.1673 19.5902 13.9995H21.5902C21.5902 13.1873 22.1977 12.5153 22.9826 12.4157L22.7309 10.4316ZM20.372 9.10844C21.0557 9.85829 21.5838 10.7509 21.9065 11.7352L23.807 11.1121C23.3944 9.85388 22.7203 8.71548 21.8498 7.76086L20.372 9.10844ZM20.3195 7.82333C19.8391 8.4453 18.9591 8.63116 18.2594 8.22722L17.2594 9.95927C18.8378 10.8705 20.818 10.4496 21.9023 9.04597L20.3195 7.82333ZM18.2594 8.22722C17.5673 7.82764 17.2867 6.98652 17.5698 6.26452L15.7078 5.5344C15.069 7.16352 15.6979 9.05768 17.2594 9.95927L18.2594 8.22722ZM15.0043 6.73779C15.4974 6.73779 15.9781 6.78681 16.4421 6.87991L16.8356 4.91901C16.2428 4.80005 15.6303 4.73779 15.0043 4.73779V6.73779ZM13.4389 6.90673C13.9422 6.79623 14.4658 6.73779 15.0043 6.73779V4.73779C14.3207 4.73779 13.6532 4.81203 13.01 4.95326L13.4389 6.90673ZM12.5924 9.96009C14.1409 9.06606 14.7721 7.1961 14.1598 5.5764L12.289 6.28359C12.5604 7.00152 12.2786 7.83186 11.5924 8.22804L12.5924 9.96009ZM8.05204 9.17346C9.15509 10.4748 11.0623 10.8435 12.5924 9.96009L11.5924 8.22804C10.9145 8.61943 10.0668 8.45725 9.57771 7.88027L8.05204 9.17346ZM8.09528 11.7561C8.4059 10.7988 8.91055 9.92774 9.56377 9.18955L8.06599 7.86417C7.2343 8.80403 6.58999 9.91513 6.19292 11.1389L8.09528 11.7561ZM15.0032 12.4029C15.885 12.4029 16.5998 13.1177 16.5998 13.9995H18.5998C18.5998 12.0132 16.9896 10.4029 15.0032 10.4029V12.4029ZM13.4066 13.9995C13.4066 13.1177 14.1214 12.4029 15.0032 12.4029V10.4029C13.0169 10.4029 11.4066 12.0132 11.4066 13.9995H13.4066ZM15.0032 15.5961C14.1214 15.5961 13.4066 14.8813 13.4066 13.9995H11.4066C11.4066 15.9859 13.0169 17.5961 15.0032 17.5961V15.5961ZM16.5998 13.9995C16.5998 14.8813 15.885 15.5961 15.0032 15.5961V17.5961C16.9896 17.5961 18.5998 15.9859 18.5998 13.9995H16.5998Z" fill="#0042EC"/>
<path id="Ellipse 86" d="M3 14C3 11.6266 3.70379 9.30654 5.02237 7.33315C6.34094 5.35976 8.21509 3.8217 10.4078 2.91344C12.6005 2.00519 15.0133 1.76755 17.3411 2.23058C19.6689 2.6936 21.8071 3.83649 23.4853 5.51472C25.1635 7.19295 26.3064 9.33114 26.7694 11.6589C27.2324 13.9867 26.9948 16.3995 26.0866 18.5922C25.1783 20.7849 23.6402 22.6591 21.6668 23.9776C19.6935 25.2962 17.3734 26 15 26" stroke="#0042EC" stroke-width="2" stroke-linecap="round"/>
<path id="Vector 17" d="M1 13L3 15L5 13" stroke="#0042EC" stroke-width="2" stroke-linecap="round" stroke-linejoin="round"/>
</g>
</svg>
