<svg width="0" height="0" class="hidden">

  <symbol fill="none" xmlns="http://www.w3.org/2000/svg" viewBox="0 0 20 7" id="arrow">
    <path id="Vector 9" d="M0 3.5H18.5001"></path>
    <path id="Vector 10" d="M15 0.5L18 3.5L15 6.5"></path>
  </symbol>

  <symbol xmlns="http://www.w3.org/2000/svg" viewBox="0 0 23 24" id="upload">
    <path fill-rule="evenodd" clip-rule="evenodd" d="M17.8453 3.97946C18.8565 4.09579 19.7101 4.654 20.3384 5.28227C20.9667 5.91054 21.5249 6.76422 21.6412 7.77543C21.7632 8.836 21.3794 9.89811 20.4394 10.8381L11.3481 19.9295C10.1337 21.1439 8.69084 21.6137 7.29093 21.4974C5.91962 21.3835 4.65853 20.7151 3.72141 19.778C2.78429 18.8408 2.1159 17.5797 2.00195 16.2084C1.88563 14.8085 2.35548 13.3657 3.56989 12.1513L11.146 4.57516C11.5366 4.18464 12.1697 4.18464 12.5602 4.57516C12.9508 4.96568 12.9508 5.59885 12.5602 5.98937L4.9841 13.5655C4.1782 14.3714 3.92832 15.2393 3.99509 16.0428C4.06423 16.8749 4.48175 17.7099 5.13562 18.3637C5.7895 19.0176 6.62447 19.4351 7.45655 19.5043C8.26004 19.571 9.12795 19.3212 9.93385 18.5153L19.0252 9.42389C19.6004 8.84866 19.6965 8.37029 19.6543 8.00401C19.6065 7.58838 19.3566 7.12887 18.9242 6.69648C18.4918 6.26409 18.0323 6.01417 17.6167 5.96636C17.2504 5.92422 16.772 6.02024 16.1968 6.59547L7.6105 15.1818C7.60041 15.1919 7.53537 15.2836 7.54007 15.4762C7.54466 15.6645 7.61389 15.7912 7.661 15.8384C7.70812 15.8855 7.83489 15.9547 8.02316 15.9593C8.21572 15.964 8.30751 15.899 8.3176 15.8889L15.3887 8.8178C15.7792 8.42728 16.4124 8.42728 16.8029 8.8178C17.1934 9.20833 17.1934 9.84149 16.8029 10.232L9.73182 17.3031C9.23683 17.7981 8.55838 17.9729 7.97439 17.9587C7.3861 17.9444 6.73001 17.7358 6.24679 17.2526C5.76357 16.7694 5.55501 16.1133 5.54066 15.525C5.52642 14.941 5.7013 14.2625 6.19628 13.7675L14.7826 5.18125C15.7226 4.24125 16.7847 3.85745 17.8453 3.97946Z"/>
  </symbol>

  <symbol xmlns="http://www.w3.org/2000/svg" width="28" height="28" viewBox="0 0 28 28" fill="none" id="modal_icon1">
    <path d="M4 5L14 1L24 4.58824L24.5388 13.1374C24.8219 17.6302 22.5667 21.9035 18.6979 24.2051L14.5113 26.6958C14.1962 26.8833 13.8038 26.8833 13.4887 26.6958L9.31393 24.2122C5.43892 21.9068 3.18323 17.6239 3.47435 13.1244L4 5Z" stroke="#0042EC" stroke-width="2" stroke-linejoin="round"/>
    <path d="M10.5 13L13.5 16L18 11" stroke="#0042EC" stroke-width="2" stroke-linecap="round" stroke-linejoin="round"/>
  </symbol>

  <symbol xmlns="http://www.w3.org/2000/svg" width="28" height="28" viewBox="0 0 28 28" fill="none" id="modal_icon2">
    <path d="M7.14361 11.4475L6.19243 11.1389C6.10368 11.4124 6.13698 11.7109 6.28383 11.9582C6.43069 12.2054 6.67688 12.3775 6.95954 12.4304L7.14361 11.4475ZM7.14356 16.5518L6.95951 15.5689C6.67684 15.6219 6.43065 15.7939 6.28379 16.0412C6.13693 16.2884 6.10362 16.5869 6.19237 16.8605L7.14356 16.5518ZM8.81477 19.4731L8.06592 20.1358C8.25817 20.353 8.53527 20.4761 8.82534 20.473C9.1154 20.47 9.38984 20.3411 9.57745 20.1198L8.81477 19.4731ZM12.0919 18.9063L12.5919 18.0403L12.0919 18.9063ZM13.2242 22.0696L12.2887 21.7163C12.1861 21.988 12.2067 22.2909 12.3451 22.5462C12.4836 22.8015 12.7262 22.9841 13.0098 23.0463L13.2242 22.0696ZM16.6382 22.1001L16.8349 23.0805C17.1249 23.0223 17.3743 22.8388 17.516 22.5792C17.6577 22.3195 17.6772 22.0105 17.5692 21.7352L16.6382 22.1001ZM17.7589 18.9067L17.2589 18.0406V18.0406L17.7589 18.9067ZM21.1103 19.565L20.3189 20.1764C20.4996 20.4102 20.7743 20.5522 21.0695 20.5642C21.3647 20.5762 21.6501 20.4571 21.8492 20.2388L21.1103 19.565ZM22.8564 16.5754L23.8067 16.8869C23.8996 16.6033 23.8611 16.293 23.7016 16.0408C23.542 15.7886 23.2782 15.6209 22.9822 15.5833L22.8564 16.5754ZM22.8563 11.4237L22.9821 12.4157C23.2781 12.3782 23.5419 12.2104 23.7014 11.9582C23.8609 11.706 23.8995 11.3957 23.8065 11.1121L22.8563 11.4237ZM21.1104 8.43465L21.8493 7.76086C21.6503 7.54254 21.3648 7.42343 21.0696 7.43548C20.7744 7.44753 20.4997 7.58951 20.319 7.82333L21.1104 8.43465ZM17.7589 9.09324L17.2589 9.95927L17.7589 9.09324ZM16.6383 5.89946L17.5693 6.26452C17.6773 5.98915 17.6578 5.6801 17.5161 5.42045C17.3745 5.1608 17.1251 4.9772 16.8351 4.91901L16.6383 5.89946ZM13.2239 5.92999L13.0095 4.95326C12.7258 5.01555 12.4832 5.19814 12.3448 5.45353C12.2063 5.70892 12.1858 6.01187 12.2885 6.28359L13.2239 5.92999ZM12.0919 9.09407L11.5919 8.22804L11.5919 8.22804L12.0919 9.09407ZM8.81439 8.52686L9.57722 7.88027C9.38962 7.65895 9.11515 7.53001 8.82504 7.52692C8.53492 7.52383 8.25777 7.64689 8.0655 7.86417L8.81439 8.52686ZM6.95954 12.4304C7.69947 12.569 8.25931 13.22 8.25931 13.9997H10.2593C10.2593 12.2398 8.99636 10.7771 7.32768 10.4646L6.95954 12.4304ZM8.25931 13.9997C8.25931 14.7793 7.69945 15.4304 6.95951 15.5689L7.3276 17.5348C8.99632 17.2223 10.2593 15.7595 10.2593 13.9997H8.25931ZM9.56361 18.8103C8.9102 18.072 8.40541 17.2007 8.09474 16.2432L6.19237 16.8605C6.58951 18.0845 7.23399 19.1958 8.06592 20.1358L9.56361 18.8103ZM12.5919 18.0403C11.0621 17.1571 9.1552 17.5255 8.05208 18.8263L9.57745 20.1198C10.0666 19.5431 10.9141 19.381 11.5919 19.7723L12.5919 18.0403ZM14.1598 22.4229C14.7713 20.8034 14.1401 18.9341 12.5919 18.0403L11.5919 19.7723C12.2779 20.1684 12.5598 20.9985 12.2887 21.7163L14.1598 22.4229ZM15.0038 21.2617C14.4654 21.2617 13.9419 21.2033 13.4387 21.0928L13.0098 23.0463C13.653 23.1875 14.3203 23.2617 15.0038 23.2617V21.2617ZM16.4415 21.1196C15.9776 21.2127 15.4969 21.2617 15.0038 21.2617V23.2617C15.6298 23.2617 16.2422 23.1995 16.8349 23.0805L16.4415 21.1196ZM17.5692 21.7352C17.2863 21.0132 17.5669 20.1722 18.2589 19.7727L17.2589 18.0406C15.6975 18.9421 15.0687 20.836 15.7072 22.465L17.5692 21.7352ZM18.2589 19.7727C18.9585 19.3688 19.8385 19.5546 20.3189 20.1764L21.9016 18.9536C20.8173 17.5502 18.8372 17.1294 17.2589 18.0406L18.2589 19.7727ZM21.9062 16.2639C21.5834 17.2484 21.0553 18.1412 20.3713 18.8912L21.8492 20.2388C22.7198 19.2841 23.3941 18.1454 23.8067 16.8869L21.9062 16.2639ZM19.5897 13.9995C19.5897 15.8318 20.959 17.3428 22.7306 17.5674L22.9822 15.5833C22.1972 15.4838 21.5897 14.8118 21.5897 13.9995H19.5897ZM22.7304 10.4316C20.9589 10.6564 19.5897 12.1673 19.5897 13.9995H21.5897C21.5897 13.1873 22.1972 12.5153 22.9821 12.4157L22.7304 10.4316ZM20.3715 9.10844C21.0552 9.85829 21.5833 10.7509 21.906 11.7352L23.8065 11.1121C23.394 9.85388 22.7198 8.71548 21.8493 7.76086L20.3715 9.10844ZM20.319 7.82333C19.8386 8.4453 18.9586 8.63116 18.2589 8.22722L17.2589 9.95927C18.8373 10.8705 20.8175 10.4496 21.9018 9.04597L20.319 7.82333ZM18.2589 8.22722C17.5669 7.82764 17.2862 6.98652 17.5693 6.26452L15.7074 5.5344C15.0685 7.16352 15.6974 9.05768 17.2589 9.95927L18.2589 8.22722ZM15.0038 6.73779C15.497 6.73779 15.9776 6.78681 16.4416 6.87991L16.8351 4.91901C16.2423 4.80005 15.6298 4.73779 15.0038 4.73779V6.73779ZM13.4384 6.90673C13.9417 6.79623 14.4653 6.73779 15.0038 6.73779V4.73779C14.3202 4.73779 13.6527 4.81203 13.0095 4.95326L13.4384 6.90673ZM12.5919 9.96009C14.1404 9.06606 14.7716 7.1961 14.1593 5.5764L12.2885 6.28359C12.5599 7.00152 12.2781 7.83186 11.5919 8.22804L12.5919 9.96009ZM8.05155 9.17346C9.1546 10.4748 11.0618 10.8435 12.5919 9.96009L11.5919 8.22804C10.914 8.61943 10.0663 8.45725 9.57722 7.88027L8.05155 9.17346ZM8.09479 11.7561C8.40541 10.7988 8.91006 9.92774 9.56328 9.18955L8.0655 7.86417C7.23381 8.80403 6.58951 9.91513 6.19243 11.1389L8.09479 11.7561ZM15.0027 12.4029C15.8845 12.4029 16.5994 13.1177 16.5994 13.9995H18.5994C18.5994 12.0132 16.9891 10.4029 15.0027 10.4029V12.4029ZM13.4061 13.9995C13.4061 13.1177 14.121 12.4029 15.0027 12.4029V10.4029C13.0164 10.4029 11.4061 12.0132 11.4061 13.9995H13.4061ZM15.0027 15.5961C14.121 15.5961 13.4061 14.8813 13.4061 13.9995H11.4061C11.4061 15.9859 13.0164 17.5961 15.0027 17.5961V15.5961ZM16.5994 13.9995C16.5994 14.8813 15.8845 15.5961 15.0027 15.5961V17.5961C16.9891 17.5961 18.5994 15.9859 18.5994 13.9995H16.5994Z" fill="#0042EC"/>
    <path d="M3 14C3 11.6266 3.70379 9.30654 5.02237 7.33315C6.34094 5.35976 8.21509 3.8217 10.4078 2.91344C12.6005 2.00519 15.0133 1.76755 17.3411 2.23058C19.6689 2.6936 21.8071 3.83649 23.4853 5.51472C25.1635 7.19295 26.3064 9.33114 26.7694 11.6589C27.2324 13.9867 26.9948 16.3995 26.0866 18.5922C25.1783 20.7849 23.6402 22.6591 21.6668 23.9776C19.6935 25.2962 17.3734 26 15 26" stroke="#0042EC" stroke-width="2" stroke-linecap="round"/>
    <path d="M1 13L3 15L5 13" stroke="#0042EC" stroke-width="2" stroke-linecap="round" stroke-linejoin="round"/>
  </symbol>

  <symbol xmlns="http://www.w3.org/2000/svg" width="28" height="28" viewBox="0 0 28 28" fill="none" id="modal_icon3">
    <path d="M6.44141 13.8044L16.2784 3.96741L24.7626 12.4516C26.3247 14.0137 26.3247 16.5463 24.7626 18.1084L20.5824 22.2886C19.0203 23.8507 16.4877 23.8507 14.9256 22.2886L6.44141 13.8044Z" stroke="#0042EC" stroke-width="2"/>
    <path d="M6.44141 13.8044L18.2458 2" stroke="#0042EC" stroke-width="2" stroke-linecap="round" stroke-linejoin="round"/>
    <path d="M3 16.0002V16.0002C3 14.8957 3.89543 14.0002 5 14.0002H19" stroke="#0042EC" stroke-width="2" stroke-linecap="round" stroke-linejoin="round"/>
    <path d="M5 22C5 23.1046 4.10457 24 3 24C1.89543 24 1 23.1046 1 22C1 20.5 3 19 3 19C3 19 5 20.5 5 22Z" stroke="#0042EC" stroke-width="2"/>
  </symbol>




</svg>