<svg width="0" height="0" class="hidden">

  <symbol fill="none" xmlns="http://www.w3.org/2000/svg" viewBox="0 0 20 7" id="arrow">
    <path id="Vector 9" d="M0 3.5H18.5001"></path>
    <path id="Vector 10" d="M15 0.5L18 3.5L15 6.5"></path>
  </symbol>

  <symbol xmlns="http://www.w3.org/2000/svg" viewBox="0 0 23 24" id="upload">
    <path fill-rule="evenodd" clip-rule="evenodd" d="M17.8453 3.97946C18.8565 4.09579 19.7101 4.654 20.3384 5.28227C20.9667 5.91054 21.5249 6.76422 21.6412 7.77543C21.7632 8.836 21.3794 9.89811 20.4394 10.8381L11.3481 19.9295C10.1337 21.1439 8.69084 21.6137 7.29093 21.4974C5.91962 21.3835 4.65853 20.7151 3.72141 19.778C2.78429 18.8408 2.1159 17.5797 2.00195 16.2084C1.88563 14.8085 2.35548 13.3657 3.56989 12.1513L11.146 4.57516C11.5366 4.18464 12.1697 4.18464 12.5602 4.57516C12.9508 4.96568 12.9508 5.59885 12.5602 5.98937L4.9841 13.5655C4.1782 14.3714 3.92832 15.2393 3.99509 16.0428C4.06423 16.8749 4.48175 17.7099 5.13562 18.3637C5.7895 19.0176 6.62447 19.4351 7.45655 19.5043C8.26004 19.571 9.12795 19.3212 9.93385 18.5153L19.0252 9.42389C19.6004 8.84866 19.6965 8.37029 19.6543 8.00401C19.6065 7.58838 19.3566 7.12887 18.9242 6.69648C18.4918 6.26409 18.0323 6.01417 17.6167 5.96636C17.2504 5.92422 16.772 6.02024 16.1968 6.59547L7.6105 15.1818C7.60041 15.1919 7.53537 15.2836 7.54007 15.4762C7.54466 15.6645 7.61389 15.7912 7.661 15.8384C7.70812 15.8855 7.83489 15.9547 8.02316 15.9593C8.21572 15.964 8.30751 15.899 8.3176 15.8889L15.3887 8.8178C15.7792 8.42728 16.4124 8.42728 16.8029 8.8178C17.1934 9.20833 17.1934 9.84149 16.8029 10.232L9.73182 17.3031C9.23683 17.7981 8.55838 17.9729 7.97439 17.9587C7.3861 17.9444 6.73001 17.7358 6.24679 17.2526C5.76357 16.7694 5.55501 16.1133 5.54066 15.525C5.52642 14.941 5.7013 14.2625 6.19628 13.7675L14.7826 5.18125C15.7226 4.24125 16.7847 3.85745 17.8453 3.97946Z"/>
  </symbol>






</svg>