<svg width="24" height="24" viewBox="0 0 24 24" fill="none" xmlns="http://www.w3.org/2000/svg">
<path fill-rule="evenodd" clip-rule="evenodd" d="M18.3453 3.97946C19.3565 4.09579 20.2101 4.654 20.8384 5.28227C21.4667 5.91054 22.0249 6.76422 22.1412 7.77543C22.2632 8.836 21.8794 9.89811 20.9394 10.8381L11.8481 19.9295C10.6337 21.1439 9.19084 21.6137 7.79093 21.4974C6.41962 21.3835 5.15853 20.7151 4.22141 19.778C3.28429 18.8408 2.6159 17.5797 2.50195 16.2084C2.38563 14.8085 2.85548 13.3657 4.06989 12.1513L11.646 4.57516C12.0366 4.18464 12.6697 4.18464 13.0602 4.57516C13.4508 4.96568 13.4508 5.59885 13.0602 5.98937L5.4841 13.5655C4.6782 14.3714 4.42832 15.2393 4.49509 16.0428C4.56423 16.8749 4.98175 17.7099 5.63562 18.3637C6.2895 19.0176 7.12447 19.4351 7.95655 19.5043C8.76004 19.571 9.62795 19.3212 10.4338 18.5153L19.5252 9.42389C20.1004 8.84866 20.1965 8.37029 20.1543 8.00401C20.1065 7.58838 19.8566 7.12887 19.4242 6.69648C18.9918 6.26409 18.5323 6.01417 18.1167 5.96636C17.7504 5.92422 17.272 6.02024 16.6968 6.59547L8.1105 15.1818C8.10041 15.1919 8.03537 15.2836 8.04007 15.4762C8.04466 15.6645 8.11389 15.7912 8.161 15.8384C8.20812 15.8855 8.33489 15.9547 8.52316 15.9593C8.71572 15.964 8.80751 15.899 8.8176 15.8889L15.8887 8.8178C16.2792 8.42728 16.9124 8.42728 17.3029 8.8178C17.6934 9.20833 17.6934 9.84149 17.3029 10.232L10.2318 17.3031C9.73683 17.7981 9.05838 17.9729 8.47439 17.9587C7.8861 17.9444 7.23001 17.7358 6.74679 17.2526C6.26357 16.7694 6.05501 16.1133 6.04066 15.525C6.02642 14.941 6.2013 14.2625 6.69628 13.7675L15.2826 5.18125C16.2226 4.24125 17.2847 3.85745 18.3453 3.97946Z" fill="#FF5430"/>
</svg>
